# xmcd
#
# Track frame offsets: 
#        150
#        36070
#        64030
#        96520
#        126229
#        149056
#        175113
#        197320
#        242256
#        276762
#        304292
#        337889
#
# Disc length: 4718 seconds
#
# Revision: 0
# Processed by: cddbd v1.5.1PL2 Copyright (c) Steve Scherf et al.
# Submitted via: ExactAudioCopy v0.95a5
#
DISCID=a9126c0c
DTITLE=Various Artist - Mike Mareen Production
DYEAR=1900
DGENRE=Disco
TTITLE0=Amadeus Liszt - Win The Race
TTITLE1=Rocco Caruso and Childrens Voice - Tirami Su
TTITLE2=Fantasy Ten - The Big Bang
TTITLE3=Triple G - Nervious
TTITLE4=A and M - Someones On The Line (Galactika Mix)
TTITLE5=Paul McDuglas - Turbo-Geil
TTITLE6=Paul Mcduglas - Tur-Bienne
TTITLE7=Digital Ram - Do It
TTITLE8=Alison Yasou - More Than A Dream (Disco Mix)
TTITLE9=Dj's Project - Birthday Girl
TTITLE10=Creative Connection - Scratch My Name (Night and Day Remix)
TTITLE11=Amadeus Liszt - Win The Race (Radio Version) 
EXTD=
EXTT0=
EXTT1=
EXTT2=
EXTT3=
EXTT4=
EXTT5=
EXTT6=
EXTT7=
EXTT8=
EXTT9=
EXTT10=
EXTT11=
PLAYORDER=
